<?xml version="1.0" encoding="utf-8"?>
<svg version="1.1" id="katman_1" xmlns="http://www.w3.org/2000/svg" xmlns:xlink="http://www.w3.org/1999/xlink" x="0px" y="0px"
	 viewBox="0 0 517.62 272.41" style="enable-background:new 0 0 517.62 272.41;" xml:space="preserve">
<style type="text/css">
	.st0{fill:#7FBED5;}
	.st1{fill:#562A7F;}
	.st2{font-family:'Hubballi-Regular';}
	.st3{font-size:35px;}
	.st4{letter-spacing:1;}
	.st5{fill:#33BACF;}
	.st6{fill:#605F9D;}
	.st7{fill:#677FB2;}
	.st8{fill:#5A408C;}
	.st9{fill:#6882B3;}
	.st10{fill:#75A8CA;}
	.st11{fill:#69C6E1;}
</style>
<path class="st0" d="M104.07,253.9c-26.47,0-52.93,0-79.4,0c-1,0-2.01-0.04-3.01,0c-1.08,0.04-1.6-0.36-1.58-1.52
	c0.02-1.03,0.25-1.7,1.44-1.68c1,0.02,2.01-0.02,3.01-0.02c53.31,0,106.62,0,159.92,0c0.75,0,1.51,0.04,2.26,0.01
	c1.12-0.05,1.57,0.48,1.58,1.57c0.01,1.02-0.24,1.72-1.45,1.66c-0.63-0.03-1.25-0.01-1.88-0.01
	C158.01,253.9,131.04,253.9,104.07,253.9z"/>
<path class="st0" d="M416.68,253.9c-26.74,0-53.47,0-80.21,0c-0.88,0-1.76-0.01-2.64-0.01c-0.99,0-1.24-0.6-1.25-1.46
	c-0.02-0.98,0.12-1.76,1.36-1.74c0.88,0.02,1.76,0,2.64,0c53.35,0,106.7,0,160.05,0c1,0,2.01,0,3.01,0.05
	c1.05,0.05,1.06,0.85,1.07,1.62c0,0.82-0.15,1.51-1.18,1.52c-1,0.01-2.01,0.03-3.01,0.03C469.9,253.9,443.29,253.9,416.68,253.9z"/>
<path class="st1" d="M72.16,38.05H41.68c-20.62,0-37.35,16.72-37.35,37.34v91.49c0,20.63,16.73,37.35,37.35,37.35h30.48
	c20.62,0,37.35-16.72,37.35-37.35V75.39C109.5,54.77,92.78,38.05,72.16,38.05z M90.4,161.77c0,13.7-11.11,24.82-24.82,24.82H48.56
	c-13.7,0-24.82-11.11-24.82-24.82V81.2c0-13.7,11.11-24.82,24.82-24.82h17.02c13.7,0,24.82,11.11,24.82,24.82V161.77z"/>
<polygon class="st1" points="402.57,38.05 318.71,38.05 318.71,204.24 407.4,204.24 407.4,187 337.43,187 337.43,125.15
	396.4,125.15 396.4,106.1 337.41,106.1 337.41,55.16 402.63,55.16 "/>
<g>
	<path class="st1" d="M413.28,204.24l35.7-84.74l-35.69-81.46l22.13,0.07l28.16,67.54l27.88-67.62l22.06,0l-35.3,81.46l35.3,84.73
		l-21.81,0l-28.13-69.41l-28.15,69.41H413.28z"/>
</g>
<text transform="matrix(1 0 0 1 199.368 264.4949)" class="st1 st2 st3 st4">YAZILIM</text>
<path class="st1" d="M176.65,154.8c20.44,0.03,40.89-0.03,61.33,0l-30.66,52.86L176.65,154.8z"/>
<path class="st5" d="M244.53,20.86c20.54,0.03,41.08-0.03,61.63,0l-30.81,53.12L244.53,20.86z"/>
<path class="st6" d="M207.31,101.93c20.44,0.02,40.89-0.03,61.33,0l-30.66,52.86L207.31,101.93z"/>
<path class="st7" d="M145.98,101.93c20.44,0.02,40.89-0.03,61.33,0l-30.66,52.86L145.98,101.93z"/>
<path class="st0" d="M115.36,49.06c20.44,0.02,40.89-0.03,61.33,0l-30.66,52.86L115.36,49.06z"/>
<path class="st8" d="M237.98,154.79c-20.44-0.02-40.89,0.03-61.33,0l30.66-52.86L237.98,154.79z"/>
<path class="st9" d="M268.69,101.92c-20.44-0.03-40.89,0.03-61.33,0l30.66-52.86L268.69,101.92z"/>
<path class="st10" d="M207.36,101.92c-20.44-0.03-40.89,0.03-61.33,0l30.66-52.86L207.36,101.92z"/>
<path class="st11" d="M240.02,33.18c-9.87-0.01-19.73,0.01-29.6,0l14.8-25.52L240.02,33.18z"/>
</svg>
